<mxfile host="app.diagrams.net" modified="2022-09-20T15:09:24.210Z" agent="5.0 (Windows NT 10.0; Win64; x64) AppleWebKit/537.36 (KHTML, like Gecko) Chrome/105.0.0.0 Safari/537.36" etag="MMXb07cPw5ManQYcScOw" version="20.3.3" type="github">
  <diagram id="gxNpBuW-qLdgBFVH1bzb" name="Página-1">
    <mxGraphModel dx="2405" dy="876" grid="1" gridSize="10" guides="1" tooltips="1" connect="1" arrows="1" fold="1" page="1" pageScale="1" pageWidth="827" pageHeight="1169" math="0" shadow="0">
      <root>
        <mxCell id="0" />
        <mxCell id="1" parent="0" />
        <mxCell id="0gYp2q7A8c9KsE_uPh-v-1" value="INIT" style="ellipse;whiteSpace=wrap;html=1;" parent="1" vertex="1">
          <mxGeometry x="330" y="50" width="90" height="40" as="geometry" />
        </mxCell>
        <mxCell id="0gYp2q7A8c9KsE_uPh-v-2" value="" style="endArrow=classic;html=1;rounded=0;entryX=0.5;entryY=0;entryDx=0;entryDy=0;" parent="1" source="0gYp2q7A8c9KsE_uPh-v-1" target="0gYp2q7A8c9KsE_uPh-v-3" edge="1">
          <mxGeometry width="50" height="50" relative="1" as="geometry">
            <mxPoint x="390" y="170" as="sourcePoint" />
            <mxPoint x="375" y="130" as="targetPoint" />
          </mxGeometry>
        </mxCell>
        <mxCell id="0gYp2q7A8c9KsE_uPh-v-3" value="Escribir (&quot;Introduce un caracter&quot;)" style="shape=parallelogram;perimeter=parallelogramPerimeter;whiteSpace=wrap;html=1;fixedSize=1;" parent="1" vertex="1">
          <mxGeometry x="255" y="130" width="240" height="60" as="geometry" />
        </mxCell>
        <mxCell id="0gYp2q7A8c9KsE_uPh-v-4" value="" style="endArrow=classic;html=1;rounded=0;exitX=0.5;exitY=1;exitDx=0;exitDy=0;entryX=0.5;entryY=0;entryDx=0;entryDy=0;" parent="1" source="0gYp2q7A8c9KsE_uPh-v-3" target="0gYp2q7A8c9KsE_uPh-v-5" edge="1">
          <mxGeometry width="50" height="50" relative="1" as="geometry">
            <mxPoint x="390" y="270" as="sourcePoint" />
            <mxPoint x="375" y="250" as="targetPoint" />
          </mxGeometry>
        </mxCell>
        <mxCell id="0gYp2q7A8c9KsE_uPh-v-5" value="Leer (caracter)" style="shape=parallelogram;perimeter=parallelogramPerimeter;whiteSpace=wrap;html=1;fixedSize=1;" parent="1" vertex="1">
          <mxGeometry x="282.5" y="220" width="185" height="60" as="geometry" />
        </mxCell>
        <mxCell id="0gYp2q7A8c9KsE_uPh-v-6" value="SI caracter == consonante" style="rhombus;whiteSpace=wrap;html=1;" parent="1" vertex="1">
          <mxGeometry x="250" y="330" width="250" height="80" as="geometry" />
        </mxCell>
        <mxCell id="0gYp2q7A8c9KsE_uPh-v-8" value="True" style="text;html=1;align=center;verticalAlign=middle;resizable=0;points=[];autosize=1;strokeColor=none;fillColor=none;" parent="1" vertex="1">
          <mxGeometry x="454" y="333" width="50" height="30" as="geometry" />
        </mxCell>
        <mxCell id="0gYp2q7A8c9KsE_uPh-v-10" value="False" style="text;html=1;align=center;verticalAlign=middle;resizable=0;points=[];autosize=1;strokeColor=none;fillColor=none;" parent="1" vertex="1">
          <mxGeometry x="244" y="333" width="50" height="30" as="geometry" />
        </mxCell>
        <mxCell id="0gYp2q7A8c9KsE_uPh-v-11" value="" style="endArrow=classic;html=1;rounded=0;exitX=0.5;exitY=1;exitDx=0;exitDy=0;entryX=0.5;entryY=0;entryDx=0;entryDy=0;" parent="1" source="0gYp2q7A8c9KsE_uPh-v-5" target="0gYp2q7A8c9KsE_uPh-v-6" edge="1">
          <mxGeometry width="50" height="50" relative="1" as="geometry">
            <mxPoint x="390" y="270" as="sourcePoint" />
            <mxPoint x="440" y="220" as="targetPoint" />
          </mxGeometry>
        </mxCell>
        <mxCell id="0gYp2q7A8c9KsE_uPh-v-13" value="Escribir(&quot;El carácter introducido es consonante&quot;)" style="shape=parallelogram;perimeter=parallelogramPerimeter;whiteSpace=wrap;html=1;fixedSize=1;" parent="1" vertex="1">
          <mxGeometry x="480" y="440" width="310" height="60" as="geometry" />
        </mxCell>
        <mxCell id="0gYp2q7A8c9KsE_uPh-v-14" value="" style="curved=1;endArrow=classic;html=1;rounded=0;entryX=0.5;entryY=0;entryDx=0;entryDy=0;exitX=1;exitY=0.5;exitDx=0;exitDy=0;" parent="1" source="0gYp2q7A8c9KsE_uPh-v-6" target="0gYp2q7A8c9KsE_uPh-v-13" edge="1">
          <mxGeometry width="50" height="50" relative="1" as="geometry">
            <mxPoint x="350" y="360" as="sourcePoint" />
            <mxPoint x="400" y="310" as="targetPoint" />
            <Array as="points">
              <mxPoint x="600" y="370" />
              <mxPoint x="630" y="400" />
            </Array>
          </mxGeometry>
        </mxCell>
        <mxCell id="0gYp2q7A8c9KsE_uPh-v-25" value="SI caracter == vocal" style="rhombus;whiteSpace=wrap;html=1;" parent="1" vertex="1">
          <mxGeometry x="26" y="480" width="250" height="80" as="geometry" />
        </mxCell>
        <mxCell id="0gYp2q7A8c9KsE_uPh-v-26" value="True" style="text;html=1;align=center;verticalAlign=middle;resizable=0;points=[];autosize=1;strokeColor=none;fillColor=none;" parent="1" vertex="1">
          <mxGeometry x="230" y="483" width="50" height="30" as="geometry" />
        </mxCell>
        <mxCell id="0gYp2q7A8c9KsE_uPh-v-27" value="False" style="text;html=1;align=center;verticalAlign=middle;resizable=0;points=[];autosize=1;strokeColor=none;fillColor=none;" parent="1" vertex="1">
          <mxGeometry x="20" y="483" width="50" height="30" as="geometry" />
        </mxCell>
        <mxCell id="0gYp2q7A8c9KsE_uPh-v-28" value="Escribir(&quot;El carácter introducido es vocal&quot;)" style="shape=parallelogram;perimeter=parallelogramPerimeter;whiteSpace=wrap;html=1;fixedSize=1;" parent="1" vertex="1">
          <mxGeometry x="256" y="590" width="310" height="60" as="geometry" />
        </mxCell>
        <mxCell id="0gYp2q7A8c9KsE_uPh-v-29" value="" style="curved=1;endArrow=classic;html=1;rounded=0;entryX=0.5;entryY=0;entryDx=0;entryDy=0;exitX=1;exitY=0.5;exitDx=0;exitDy=0;" parent="1" source="0gYp2q7A8c9KsE_uPh-v-25" target="0gYp2q7A8c9KsE_uPh-v-28" edge="1">
          <mxGeometry width="50" height="50" relative="1" as="geometry">
            <mxPoint x="126" y="510" as="sourcePoint" />
            <mxPoint x="176" y="460" as="targetPoint" />
            <Array as="points">
              <mxPoint x="406" y="510" />
            </Array>
          </mxGeometry>
        </mxCell>
        <mxCell id="0gYp2q7A8c9KsE_uPh-v-30" value="" style="curved=1;endArrow=classic;html=1;rounded=0;exitX=0;exitY=0.5;exitDx=0;exitDy=0;entryX=0.5;entryY=0;entryDx=0;entryDy=0;" parent="1" source="0gYp2q7A8c9KsE_uPh-v-6" target="0gYp2q7A8c9KsE_uPh-v-25" edge="1">
          <mxGeometry width="50" height="50" relative="1" as="geometry">
            <mxPoint x="260" y="310" as="sourcePoint" />
            <mxPoint x="250" y="300" as="targetPoint" />
            <Array as="points">
              <mxPoint x="170" y="370" />
              <mxPoint x="150" y="400" />
            </Array>
          </mxGeometry>
        </mxCell>
        <mxCell id="0gYp2q7A8c9KsE_uPh-v-31" value="" style="curved=1;endArrow=classic;html=1;rounded=0;exitX=0;exitY=0.5;exitDx=0;exitDy=0;entryX=0.5;entryY=0;entryDx=0;entryDy=0;" parent="1" target="0gYp2q7A8c9KsE_uPh-v-32" edge="1">
          <mxGeometry width="50" height="50" relative="1" as="geometry">
            <mxPoint x="26" y="520" as="sourcePoint" />
            <mxPoint x="-73" y="630" as="targetPoint" />
            <Array as="points">
              <mxPoint x="-54" y="520" />
              <mxPoint x="-74" y="550" />
            </Array>
          </mxGeometry>
        </mxCell>
        <mxCell id="0gYp2q7A8c9KsE_uPh-v-32" value="SI caracter == número" style="rhombus;whiteSpace=wrap;html=1;" parent="1" vertex="1">
          <mxGeometry x="-200" y="630" width="250" height="80" as="geometry" />
        </mxCell>
        <mxCell id="0gYp2q7A8c9KsE_uPh-v-33" value="True" style="text;html=1;align=center;verticalAlign=middle;resizable=0;points=[];autosize=1;strokeColor=none;fillColor=none;" parent="1" vertex="1">
          <mxGeometry x="4" y="633" width="50" height="30" as="geometry" />
        </mxCell>
        <mxCell id="0gYp2q7A8c9KsE_uPh-v-34" value="False" style="text;html=1;align=center;verticalAlign=middle;resizable=0;points=[];autosize=1;strokeColor=none;fillColor=none;" parent="1" vertex="1">
          <mxGeometry x="-206" y="633" width="50" height="30" as="geometry" />
        </mxCell>
        <mxCell id="0gYp2q7A8c9KsE_uPh-v-35" value="Escribir(&quot;El carácter introducido es número&quot;)" style="shape=parallelogram;perimeter=parallelogramPerimeter;whiteSpace=wrap;html=1;fixedSize=1;" parent="1" vertex="1">
          <mxGeometry x="30" y="740" width="310" height="60" as="geometry" />
        </mxCell>
        <mxCell id="0gYp2q7A8c9KsE_uPh-v-36" value="" style="curved=1;endArrow=classic;html=1;rounded=0;entryX=0.5;entryY=0;entryDx=0;entryDy=0;exitX=1;exitY=0.5;exitDx=0;exitDy=0;" parent="1" source="0gYp2q7A8c9KsE_uPh-v-32" target="0gYp2q7A8c9KsE_uPh-v-35" edge="1">
          <mxGeometry width="50" height="50" relative="1" as="geometry">
            <mxPoint x="-100" y="660" as="sourcePoint" />
            <mxPoint x="-50" y="610" as="targetPoint" />
            <Array as="points">
              <mxPoint x="180" y="660" />
            </Array>
          </mxGeometry>
        </mxCell>
        <mxCell id="0gYp2q7A8c9KsE_uPh-v-37" value="" style="curved=1;endArrow=classic;html=1;rounded=0;exitX=0;exitY=0.5;exitDx=0;exitDy=0;entryX=0.5;entryY=0;entryDx=0;entryDy=0;" parent="1" edge="1">
          <mxGeometry width="50" height="50" relative="1" as="geometry">
            <mxPoint x="-200" y="670" as="sourcePoint" />
            <mxPoint x="-299" y="780" as="targetPoint" />
            <Array as="points">
              <mxPoint x="-280" y="670" />
              <mxPoint x="-300" y="700" />
            </Array>
          </mxGeometry>
        </mxCell>
        <mxCell id="0gYp2q7A8c9KsE_uPh-v-38" value="Escribir(&quot;El carácter introducido no corresponde con ningún tipo&quot;)" style="shape=parallelogram;perimeter=parallelogramPerimeter;whiteSpace=wrap;html=1;fixedSize=1;" parent="1" vertex="1">
          <mxGeometry x="-450" y="780" width="310" height="60" as="geometry" />
        </mxCell>
        <mxCell id="0gYp2q7A8c9KsE_uPh-v-39" value="END" style="ellipse;whiteSpace=wrap;html=1;" parent="1" vertex="1">
          <mxGeometry x="294" y="1020" width="120" height="50" as="geometry" />
        </mxCell>
        <mxCell id="0gYp2q7A8c9KsE_uPh-v-41" value="" style="curved=1;endArrow=classic;html=1;rounded=0;exitX=0.5;exitY=1;exitDx=0;exitDy=0;entryX=0.5;entryY=0;entryDx=0;entryDy=0;" parent="1" source="0gYp2q7A8c9KsE_uPh-v-38" target="0gYp2q7A8c9KsE_uPh-v-39" edge="1">
          <mxGeometry width="50" height="50" relative="1" as="geometry">
            <mxPoint x="120" y="830" as="sourcePoint" />
            <mxPoint x="310" y="980" as="targetPoint" />
            <Array as="points">
              <mxPoint x="-295" y="920" />
              <mxPoint x="360" y="920" />
            </Array>
          </mxGeometry>
        </mxCell>
        <mxCell id="0gYp2q7A8c9KsE_uPh-v-42" value="" style="curved=1;endArrow=classic;html=1;rounded=0;exitX=0.5;exitY=1;exitDx=0;exitDy=0;entryX=0.5;entryY=0;entryDx=0;entryDy=0;" parent="1" source="0gYp2q7A8c9KsE_uPh-v-35" target="0gYp2q7A8c9KsE_uPh-v-39" edge="1">
          <mxGeometry width="50" height="50" relative="1" as="geometry">
            <mxPoint x="230" y="900" as="sourcePoint" />
            <mxPoint x="360" y="1020" as="targetPoint" />
            <Array as="points">
              <mxPoint x="180" y="880" />
              <mxPoint x="350" y="880" />
            </Array>
          </mxGeometry>
        </mxCell>
        <mxCell id="0gYp2q7A8c9KsE_uPh-v-43" value="" style="curved=1;endArrow=classic;html=1;rounded=0;exitX=0.458;exitY=1.022;exitDx=0;exitDy=0;exitPerimeter=0;entryX=0.5;entryY=0;entryDx=0;entryDy=0;" parent="1" source="0gYp2q7A8c9KsE_uPh-v-28" target="0gYp2q7A8c9KsE_uPh-v-39" edge="1">
          <mxGeometry width="50" height="50" relative="1" as="geometry">
            <mxPoint x="360" y="820" as="sourcePoint" />
            <mxPoint x="410" y="770" as="targetPoint" />
            <Array as="points">
              <mxPoint x="400" y="870" />
              <mxPoint x="350" y="870" />
            </Array>
          </mxGeometry>
        </mxCell>
        <mxCell id="0gYp2q7A8c9KsE_uPh-v-44" value="" style="curved=1;endArrow=classic;html=1;rounded=0;exitX=0.5;exitY=1;exitDx=0;exitDy=0;entryX=0.5;entryY=0;entryDx=0;entryDy=0;" parent="1" source="0gYp2q7A8c9KsE_uPh-v-13" target="0gYp2q7A8c9KsE_uPh-v-39" edge="1">
          <mxGeometry width="50" height="50" relative="1" as="geometry">
            <mxPoint x="250" y="660" as="sourcePoint" />
            <mxPoint x="300" y="610" as="targetPoint" />
            <Array as="points">
              <mxPoint x="635" y="920" />
              <mxPoint x="350" y="920" />
            </Array>
          </mxGeometry>
        </mxCell>
      </root>
    </mxGraphModel>
  </diagram>
</mxfile>
